<?xml version="1.0" encoding="iso-8859-1"?>
<!-- Uploaded to: SVG Repo, www.svgrepo.com, Generator: SVG Repo Mixer Tools -->
<svg fill="grey" height="24px" width="24px" version="1.1" id="Layer_1" xmlns="http://www.w3.org/2000/svg" xmlns:xlink="http://www.w3.org/1999/xlink" 
	 viewBox="0 0 324.977 324.977" xml:space="preserve">
<g>
	<g>
		<path d="M324.536,207.708l-48.138-148.22h12.103c4.971,0,9-4.029,9-9s-4.029-9-9-9H171.488v-19c0-4.971-4.029-9-9-9
			c-4.971,0-9,4.029-9,9v19H36.475c-4.971,0-9,4.029-9,9s4.029,9,9,9h12.103L0.44,207.708c-1.008,3.104-0.257,6.51,1.963,8.902
			l16.065,17.313c10.934,11.783,26.423,18.541,42.497,18.541c16.074,0,31.563-6.758,42.496-18.541l16.065-17.313
			c2.22-2.392,2.971-5.798,1.963-8.902L73.351,59.488h80.137v208h-36.5c-19.299,0-35,15.701-35,35c0,4.971,4.029,9,9,9h143
			c4.971,0,9-4.029,9-9c0-19.299-15.701-35-35-35h-36.5v-208h80.137l-48.138,148.22c-1.008,3.104-0.257,6.51,1.963,8.902
			l16.065,17.313c10.933,11.783,26.422,18.541,42.496,18.541c16.073,0,31.563-6.758,42.497-18.541l16.065-17.313
			C324.793,214.218,325.544,210.812,324.536,207.708z M90.267,221.679c-7.65,8.244-18.056,12.784-29.302,12.784
			c-11.246,0-21.653-4.54-29.303-12.784l-2.497-2.691h63.599L90.267,221.679z M100.381,200.988H21.548L60.965,79.624
			L100.381,200.988z M207.988,285.488c6.071,0,11.409,3.199,14.417,8H102.571c3.008-4.801,8.346-8,14.417-8H207.988z
			 M293.313,221.679c-7.649,8.244-18.056,12.784-29.302,12.784c-11.246,0-21.652-4.54-29.302-12.784l-2.497-2.691h63.598
			L293.313,221.679z M224.595,200.988l39.416-121.364l39.416,121.364H224.595z"/>
	</g>
</g>
</svg>